<!DOCTYPE svg PUBLIC "-//W3C//DTD SVG 1.1//EN" "http://www.w3.org/Graphics/SVG/1.1/DTD/svg11.dtd">
<!-- Uploaded to: SVG Repo, www.svgrepo.com, Transformed by: SVG Repo Mixer Tools -->
<svg fill="#000000" version="1.1" id="Capa_1" xmlns="http://www.w3.org/2000/svg" xmlns:xlink="http://www.w3.org/1999/xlink" width="256px" height="256px" viewBox="0 0 459.57 459.57" xml:space="preserve" transform="matrix(1, 0, 0, 1, 0, 0)">
<g id="SVGRepo_bgCarrier" stroke-width="0"/>
<g id="SVGRepo_tracerCarrier" stroke-linecap="round" stroke-linejoin="round"/>
<g id="SVGRepo_iconCarrier"> <g> <g> <path d="M299.318,120.918h-19.656V97.667c0-5.799-4.701-10.501-10.5-10.501h-28.877V10.5c0-5.799-4.701-10.5-10.5-10.5 s-10.5,4.701-10.5,10.5v76.666h-28.877c-5.799,0-10.5,4.702-10.5,10.501v23.251H160.25c-5.799,0-10.5,4.702-10.5,10.501V449.07 c0,5.799,4.701,10.5,10.5,10.5h46.791c5.799,0,10.5-4.701,10.5-10.5v-80.84h24.498v80.84c0,5.799,4.701,10.5,10.5,10.5h46.779 c5.799,0,10.502-4.701,10.502-10.5V131.419C309.82,125.62,305.117,120.918,299.318,120.918z M288.818,438.57h-25.779v-80.84 c0-5.799-4.701-10.5-10.5-10.5h-45.498c-5.799,0-10.5,4.701-10.5,10.5v80.84h-25.789V141.919h19.656c5.799,0,10.5-4.702,10.5-10.5 v-23.252h57.752v23.252c0,5.798,4.703,10.5,10.502,10.5h19.656V438.57L288.818,438.57z"/> <path d="M229.785,154.763c-17.863,0-32.393,14.53-32.393,32.388c0,17.858,14.529,32.389,32.393,32.389s32.393-14.53,32.393-32.389 C262.178,169.293,247.648,154.763,229.785,154.763z M229.785,198.538c-6.281,0-11.393-5.109-11.393-11.388 c0-6.279,5.111-11.388,11.393-11.388s11.393,5.109,11.393,11.388C241.178,193.429,236.066,198.538,229.785,198.538z"/> </g> </g> </g>
</svg>